<?xml version="1.0" encoding="utf-8"?>
<!-- Generator: Adobe Illustrator 16.0.0, SVG Export Plug-In . SVG Version: 6.00 Build 0)  -->
<!DOCTYPE svg PUBLIC "-//W3C//DTD SVG 1.1//EN" "http://www.w3.org/Graphics/SVG/1.1/DTD/svg11.dtd">
<svg version="1.1" id="Layer_1" xmlns="http://www.w3.org/2000/svg" xmlns:xlink="http://www.w3.org/1999/xlink" x="0px" y="0px"
	 width="128px" height="128px" viewBox="0 0 128 128" enable-background="new 0 0 128 128" xml:space="preserve">
<g>
	<g>
		<rect id="Rectangle" x="0.112" y="0.281" fill="#FF0000" width="128" height="128"/>
	</g>
</g>
<g>
	<g>
		<path fill-rule="evenodd" clip-rule="evenodd" fill="#FFFFFF" d="M111.591,75.273c-5.502-9.801-13.258-17.262-23.364-22.172
			c-7.553-3.669-15.573-5.431-23.485-5.201c-3.713-0.021-6.901,0.043-10.072,0.609c-6.253,1.116-12.218,3.024-17.732,6.215
			c-8.625,4.993-15.375,11.851-20.301,20.513c-0.204,0.357-0.142,0.599,0.03,0.913c1.731,3.171,3.784,6.112,6.154,8.836
			c4.738,5.442,10.23,9.921,16.738,13.099c10.379,5.069,21.341,6.425,32.69,4.94c10.206-1.336,19.27-5.372,27.114-12.056
			c4.947-4.214,9.029-9.155,12.209-14.833C111.745,75.826,111.772,75.595,111.591,75.273z M64.452,94.438
			c-11.529,0.114-19.536-9.707-19.025-18.802C45,65.753,54.1,56.544,64.136,57.036c9.205-0.485,18.752,7.607,18.749,18.655
			C82.882,85.916,74.486,94.338,64.452,94.438z"/>
		<path fill-rule="evenodd" clip-rule="evenodd" fill="#FFFFFF" d="M64.488,62.882c-7.084-0.189-13.08,5.455-13.188,12.505
			c-0.112,7.306,5.815,13.134,12.47,13.06c6.674,0.404,12.965-5.162,13.187-12.552C77.161,69.082,71.39,63.068,64.488,62.882z
			 M64.307,81.593c-3.507,0.098-6.12-2.822-6.137-5.925c-0.018-3.123,2.956-6.188,5.93-5.828c3.428-0.287,5.979,2.897,5.958,5.858
			C70.035,78.88,67.406,81.504,64.307,81.593z"/>
	</g>
	<g>
		<path fill-rule="evenodd" clip-rule="evenodd" fill="#FFFFFF" d="M112.164,32.608c0,4.219-3.42,7.639-7.639,7.639H23.699
			c-4.219,0-7.639-3.42-7.639-7.639l0,0c0-4.219,3.42-7.639,7.639-7.639h80.827C108.744,24.969,112.164,28.389,112.164,32.608
			L112.164,32.608z"/>
		<text transform="matrix(1 0 0 1 20.1035 35.0293)" fill="#FF0000" font-family="'JosefinSans-Bold'" font-size="7">RB POST VIEWS WIDGET</text>
	</g>
</g>
</svg>
